<svg xmlns="http://www.w3.org/2000/svg" viewBox="0 0 2048 2048" shape-rendering="geometricPrecision" text-rendering="geometricPrecision"> <defs> <linearGradient id="l6-fill" x1="1024.03" y1="812.954" x2="1024.03" y2="1311.67" spreadMethod="pad" gradientUnits="userSpaceOnUse" gradientTransform="matrix(1 0 0 1 0 0)"> <stop id="l6-fill-0" offset="0%" stop-color="hsl(149,100%,92%)"/> <stop id="l6-fill-1" offset="100%" stop-color="hsl(179,100%,59%)"/> </linearGradient> <linearGradient id="l8-fill" x1="785.642" y1="238.446" x2="785.642" y2="1311.67" spreadMethod="pad" gradientUnits="userSpaceOnUse" gradientTransform="matrix(1 0 0 1 0 0)"> <stop id="l8-fill-0" offset="0%" stop-color="hsl(149,100%,92%)"/> <stop id="l8-fill-1" offset="100%" stop-color="hsl(179,100%,59%)"/> </linearGradient><linearGradient id="i0-fill" x1="1262.52" y1="238.446" x2="1262.52" y2="1311.71" spreadMethod="pad" gradientUnits="userSpaceOnUse" gradientTransform="matrix(1 0 0 1 0 0)"> <stop id="i0-fill-0" offset="0%" stop-color="hsl(149,100%,92%)"/> <stop id="i0-fill-1" offset="100%" stop-color="hsl(179,100%,59%)"/> </linearGradient> <linearGradient id="i3-fill" x1="785.642" y1="1120.27" x2="785.642" y2="1792.28" spreadMethod="pad" gradientUnits="userSpaceOnUse" gradientTransform="matrix(1 0 0 1 0 0)"> <stop id="i3-fill-0" offset="0%" stop-color="hsl(149,100%,92%)"/> <stop id="i3-fill-1" offset="100%" stop-color="hsl(179,100%,59%)"/> </linearGradient> <linearGradient id="i5-fill" x1="1262.72" y1="1120.29" x2="1262.72" y2="1792.29" spreadMethod="pad" gradientUnits="userSpaceOnUse" gradientTransform="matrix(1 0 0 1 0 0)"> <stop id="i5-fill-0" offset="0%" stop-color="hsl(149,100%,92%)"/> <stop id="i5-fill-1" offset="100%" stop-color="hsl(179,100%,59%)"/> </linearGradient> </defs> <rect id="l2" width="2048" height="2048" rx="0" ry="0" transform="matrix(1 0 0 1 1.6 0)" fill="hsl(289,88%,5%)" stroke="none" stroke-width="1"/> <g id="l3"> <g id="l4"> <g id="l5" opacity="0.8"> <path id="l6" d="M1024.7,813L550.4,1029.9L1024.8,1311.7L1498.9,1029.9L1024.7,813Z" transform="matrix(0.9976 0 0 1 3.45916 -1)" fill="url(#l6-fill)" stroke="none" stroke-width="1"/></g> </g> <g id="l7"> <path id="l8" d="M1024.7,243.8L1024.7,1309L551.3,1029.3L1024.7,243.8Z" transform="matrix(1 0 0 1 1 0)" opacity="0.5" fill="url(#l8-fill)" stroke="none" stroke-width="1"/> </g> <g id="l9"><path id="i0" d="M1025.6,1309.1L1025.6,243.8L1498.8,1029.3L1025.6,1309.1Z" opacity="0.8" fill="url(#i0-fill)" stroke="none" stroke-width="1"/> </g> <g id="i1"> <g id="i2" opacity="0.9"><path id="i3" d="M1024.7,1402.9L1024.7,1787.5L554.5,1125.1L1024.7,1402.9Z" transform="matrix(1 0 0 1 1 0)" opacity="0.45" fill="url(#i3-fill)" stroke="none" stroke-width="1"/> </g> <g id="i4" opacity="0.8"><path id="i5" d="M1496,1125.2L1025.6,1787.6L1025.6,1403L1496,1125.2Z" opacity="0.8" fill="url(#i5-fill)" stroke="none" stroke-width="1"/> </g> </g> </g> </svg>